<svg width="336" height="307" fill="none" xmlns="http://www.w3.org/2000/svg"><mask id="prefix__a" fill="#fff"><path fill-rule="evenodd" clip-rule="evenodd" d="M336 0H0v285.163h159.098L168 307l8.902-21.837H336V0z"/></mask><path fill-rule="evenodd" clip-rule="evenodd" d="M336 0H0v285.163h159.098L168 307l8.902-21.837H336V0z" fill="#fff"/><path d="M0 0v-1h-1v1h1zm336 0h1v-1h-1v1zM0 285.163h-1v1h1v-1zm159.098 0l.926-.377-.254-.623h-.672v1zM168 307l-.926.378.926 2.271.926-2.271L168 307zm8.902-21.837v-1h-.672l-.254.623.926.377zm159.098 0v1h1v-1h-1zM0 1h336v-2H0v2zm1 284.163V0h-2v285.163h2zm158.098-1H0v2h159.098v-2zm9.828 22.459l-8.902-21.836-1.852.755 8.902 21.837 1.852-.756zm7.05-21.836l-8.902 21.836 1.852.756 8.902-21.837-1.852-.755zM336 284.163H176.902v2H336v-2zM335 0v285.163h2V0h-2z" fill="#7A9F8F" mask="url(#prefix__a)"/></svg>