<svg width="1440" height="446" viewBox="0 0 1440 446" fill="none" xmlns="http://www.w3.org/2000/svg">
<g opacity="0.05">
<path d="M579.436 91.0822V109.127C579.436 138.533 572.846 161.16 559.667 177.009C546.679 192.667 527.387 200.495 501.792 200.495C476.197 200.495 456.81 192.667 443.631 177.009C430.642 161.16 424.148 138.533 424.148 109.127V91.0822C424.148 61.6762 430.642 39.1443 443.631 23.4866C456.81 7.82887 476.197 0 501.792 0C527.387 0 546.679 7.82887 559.667 23.4866C572.846 39.1443 579.436 61.6762 579.436 91.0822ZM542.763 76.7611C542.763 59.9577 541.33 46.7823 538.465 37.2349C535.6 27.4965 531.112 20.5269 524.999 16.3261C519.078 12.1252 511.342 10.0248 501.792 10.0248C492.433 10.0248 484.697 12.1252 478.585 16.3261C472.473 20.5269 467.984 27.4965 465.119 37.2349C462.254 46.7823 460.821 59.9577 460.821 76.7611V123.448C460.821 140.06 462.254 153.236 465.119 162.974C467.984 172.712 472.473 179.778 478.585 184.169C484.697 188.37 492.433 190.471 501.792 190.471C511.342 190.471 519.078 188.37 524.999 184.169C531.112 179.778 535.6 172.712 538.465 162.974C541.33 153.236 542.763 140.06 542.763 123.448V76.7611Z" fill="#7A9F8F"/>
<path d="M730.377 10.884V2.86424H785.96V10.884L770.202 12.889C767.146 13.2709 765.331 14.1302 764.758 15.4668C764.185 16.6125 763.898 20.4314 763.898 26.9237V131.468C763.898 154.381 759.028 171.662 749.286 183.31C739.736 194.767 725.029 200.495 705.164 200.495C682.052 200.495 663.429 194.194 649.295 181.592C635.16 168.989 628.093 150.849 628.093 127.171V26.9237C628.093 20.4314 627.807 16.6125 627.234 15.4668C626.661 14.1302 624.846 13.2709 621.79 12.889L606.032 10.884V2.86424H684.536V10.884L668.778 12.889C665.721 13.2709 663.907 14.1302 663.334 15.4668C662.761 16.6125 662.474 20.4314 662.474 26.9237V129.176C662.474 150.563 666.39 166.029 674.221 175.577C682.052 185.124 693.226 189.898 707.743 189.898C721.877 189.898 732.86 185.411 740.691 176.436C748.522 167.27 752.438 152.472 752.438 132.041V26.9237C752.438 20.4314 752.152 16.6125 751.579 15.4668C751.006 14.1302 749.191 13.2709 746.135 12.889L730.377 10.884Z" fill="#7A9F8F"/>
<path d="M806.472 10.884V2.86424H892.998C913.053 2.86424 928.525 7.35151 939.412 16.3261C950.299 25.3006 955.743 37.3303 955.743 52.4152V59.0029C955.743 70.4598 952.591 80.1982 946.288 88.218C939.985 96.2378 930.912 101.966 919.07 105.403L954.883 173.572C957.175 177.773 958.894 180.828 960.041 182.737C961.187 184.647 962.237 185.888 963.192 186.461C964.338 186.843 965.866 187.225 967.776 187.606L980.669 189.611V197.631H927.092L883.829 108.84H862.914V173.572C862.914 180.064 863.201 183.978 863.774 185.315C864.347 186.461 866.161 187.225 869.217 187.606L884.975 189.611V197.631H806.472V189.611L822.23 187.606C825.286 187.225 827.1 186.461 827.674 185.315C828.247 183.978 828.533 180.064 828.533 173.572V26.9237C828.533 20.4314 828.247 16.6125 827.674 15.4668C827.1 14.1302 825.286 13.2709 822.23 12.889L806.472 10.884ZM892.998 12.889H862.914V98.8156H892.998C901.402 98.8156 907.8 96.2378 912.194 91.0822C916.778 85.7357 919.07 75.9973 919.07 61.8672V49.551C919.07 35.4209 916.778 25.778 912.194 20.6224C907.8 15.4668 901.402 12.889 892.998 12.889Z" fill="#7A9F8F"/>
<path d="M51.2962 435.116V443.136H-4V435.116L11.758 433.111C13.859 432.729 15.3871 432.347 16.3421 431.965C17.2972 431.393 18.1567 430.151 18.9207 428.242C19.6847 426.332 20.7353 423.277 22.0723 419.076L76.7955 248.369H101.435L156.445 419.076C157.782 423.277 158.833 426.332 159.597 428.242C160.361 430.151 161.22 431.393 162.175 431.965C163.321 432.347 164.849 432.729 166.759 433.111L182.517 435.116V443.136H103.441V435.116L119.199 433.111C122.255 432.729 123.878 431.965 124.069 430.82C124.451 429.483 123.592 425.569 121.491 419.076L110.604 383.56H44.42L33.2461 419.076C31.3361 425.569 30.4766 429.483 30.6676 430.82C30.8586 431.965 32.4821 432.729 35.5382 433.111L51.2962 435.116ZM47.8581 373.535H107.452L77.9415 278.443L47.8581 373.535Z" fill="#7A9F8F"/>
<path d="M193.024 256.389V248.369H279.263C300.274 248.369 315.936 253.238 326.251 262.976C336.756 272.524 342.009 285.317 342.009 301.357V307.945C342.009 323.984 336.756 336.873 326.251 346.612C315.936 356.35 300.274 361.219 279.263 361.219H249.466V419.076C249.466 425.569 249.753 429.483 250.326 430.82C250.899 431.965 252.713 432.729 255.769 433.111L277.258 435.116V443.136H193.024V435.116L208.782 433.111C211.838 432.729 213.653 431.965 214.226 430.82C214.799 429.483 215.085 425.569 215.085 419.076V272.428C215.085 265.936 214.799 262.117 214.226 260.971C213.653 259.635 211.838 258.776 208.782 258.394L193.024 256.389ZM279.263 258.394H249.466V351.194H279.263C287.667 351.194 294.066 347.853 298.459 341.17C303.043 334.486 305.335 325.321 305.335 313.673V295.628C305.335 283.981 303.043 274.911 298.459 268.418C294.066 261.735 287.667 258.394 279.263 258.394Z" fill="#7A9F8F"/>
<path d="M364.258 256.389V248.369H450.497C471.508 248.369 487.17 253.238 497.484 262.976C507.99 272.524 513.242 285.317 513.242 301.357V307.945C513.242 323.984 507.99 336.873 497.484 346.612C487.17 356.35 471.508 361.219 450.497 361.219H420.7V419.076C420.7 425.569 420.987 429.483 421.56 430.82C422.133 431.965 423.947 432.729 427.003 433.111L448.491 435.116V443.136H364.258V435.116L380.016 433.111C383.072 432.729 384.886 431.965 385.459 430.82C386.033 429.483 386.319 425.569 386.319 419.076V272.428C386.319 265.936 386.033 262.117 385.459 260.971C384.886 259.635 383.072 258.776 380.016 258.394L364.258 256.389ZM450.497 258.394H420.7V351.194H450.497C458.901 351.194 465.3 347.853 469.693 341.17C474.277 334.486 476.569 325.321 476.569 313.673V295.628C476.569 283.981 474.277 274.911 469.693 268.418C465.3 261.735 458.901 258.394 450.497 258.394Z" fill="#7A9F8F"/>
<path d="M535.492 256.389V248.369H622.017C642.073 248.369 657.544 252.856 668.432 261.831C679.319 270.805 684.763 282.835 684.763 297.92V304.508C684.763 315.964 681.611 325.703 675.308 333.723C669.005 341.742 659.932 347.471 648.09 350.908L683.903 419.076C686.195 423.277 687.914 426.332 689.06 428.242C690.206 430.151 691.257 431.393 692.212 431.965C693.358 432.347 694.886 432.729 696.796 433.111L709.689 435.116V443.136H656.112L612.849 354.345H591.934V419.076C591.934 425.569 592.22 429.483 592.793 430.82C593.366 431.965 595.181 432.729 598.237 433.111L613.995 435.116V443.136H535.492V435.116L551.25 433.111C554.306 432.729 556.12 431.965 556.693 430.82C557.266 429.483 557.553 425.569 557.553 419.076V272.428C557.553 265.936 557.266 262.117 556.693 260.971C556.12 259.635 554.306 258.776 551.25 258.394L535.492 256.389ZM622.017 258.394H591.934V344.32H622.017C630.422 344.32 636.82 341.742 641.213 336.587C645.797 331.24 648.09 321.502 648.09 307.372V295.056C648.09 280.925 645.797 271.283 641.213 266.127C636.82 260.971 630.422 258.394 622.017 258.394Z" fill="#7A9F8F"/>
<path d="M883.992 336.587V354.631C883.992 384.037 877.402 406.665 864.222 422.513C851.234 438.171 831.942 446 806.348 446C780.753 446 761.366 438.171 748.186 422.513C735.198 406.665 728.704 384.037 728.704 354.631V336.587C728.704 307.181 735.198 284.649 748.186 268.991C761.366 253.333 780.753 245.505 806.348 245.505C831.942 245.505 851.234 253.333 864.222 268.991C877.402 284.649 883.992 307.181 883.992 336.587ZM847.318 322.266C847.318 305.462 845.886 292.287 843.021 282.739C840.156 273.001 835.667 266.031 829.555 261.831C823.634 257.63 815.898 255.529 806.348 255.529C796.988 255.529 789.253 257.63 783.14 261.831C777.028 266.031 772.54 273.001 769.674 282.739C766.809 292.287 765.377 305.462 765.377 322.266V368.952C765.377 385.565 766.809 398.74 769.674 408.479C772.54 418.217 777.028 425.282 783.14 429.674C789.253 433.875 796.988 435.975 806.348 435.975C815.898 435.975 823.634 433.875 829.555 429.674C835.667 425.282 840.156 418.217 843.021 408.479C845.886 398.74 847.318 385.565 847.318 368.952V322.266Z" fill="#7A9F8F"/>
<path d="M947.755 435.116V443.136H892.459V435.116L908.217 433.111C910.318 432.729 911.846 432.347 912.801 431.965C913.756 431.393 914.616 430.151 915.38 428.242C916.144 426.332 917.194 423.277 918.531 419.076L973.255 248.369H997.894L1052.9 419.076C1054.24 423.277 1055.29 426.332 1056.06 428.242C1056.82 430.151 1057.68 431.393 1058.63 431.965C1059.78 432.347 1061.31 432.729 1063.22 433.111L1078.98 435.116V443.136H999.9V435.116L1015.66 433.111C1018.71 432.729 1020.34 431.965 1020.53 430.82C1020.91 429.483 1020.05 425.569 1017.95 419.076L1007.06 383.56H940.879L929.705 419.076C927.795 425.569 926.936 429.483 927.127 430.82C927.318 431.965 928.941 432.729 931.997 433.111L947.755 435.116ZM944.317 373.535H1003.91L974.401 278.443L944.317 373.535Z" fill="#7A9F8F"/>
<path d="M1169.34 446C1151.77 446 1136.87 442.277 1124.65 434.83C1112.42 427.192 1103.16 416.499 1096.85 402.75C1090.55 389.002 1087.4 372.962 1087.4 354.631V336.587C1087.4 318.256 1090.17 302.312 1095.71 288.754C1101.44 275.006 1109.94 264.408 1121.21 256.961C1132.48 249.324 1146.61 245.505 1163.61 245.505C1178.13 245.505 1190.26 248.369 1200 254.097C1209.74 259.635 1216.9 267.082 1221.49 276.438C1226.26 285.604 1228.27 295.628 1227.5 306.513L1193.98 314.819C1195.89 295.724 1193.89 281.116 1187.96 270.996C1182.23 260.685 1173.64 255.529 1162.18 255.529C1149.95 255.529 1140.5 260.685 1133.81 270.996C1127.32 281.307 1124.07 298.397 1124.07 322.266V368.952C1124.07 392.63 1127.8 409.72 1135.25 420.222C1142.7 430.724 1154.06 435.975 1169.34 435.975C1175.64 435.975 1181.47 434.83 1186.82 432.538C1192.36 430.247 1196.94 426.332 1200.57 420.795C1204.39 415.066 1206.78 407.047 1207.73 396.735L1228.36 402.177C1225.69 412.871 1221.39 421.463 1215.47 427.955C1209.55 434.448 1202.58 439.126 1194.55 441.99C1186.72 444.663 1178.32 446 1169.34 446Z" fill="#7A9F8F"/>
<path d="M1440 435.116V443.136H1361.5V435.116L1377.25 433.111C1380.31 432.729 1382.13 431.965 1382.7 430.82C1383.27 429.483 1383.56 425.569 1383.56 419.076V349.762H1308.21V419.076C1308.21 425.569 1308.49 429.483 1309.07 430.82C1309.64 431.965 1311.45 432.729 1314.51 433.111L1330.27 435.116V443.136H1251.76V435.116L1267.52 433.111C1270.58 432.729 1272.39 431.965 1272.97 430.82C1273.54 429.483 1273.82 425.569 1273.82 419.076V272.428C1273.82 265.936 1273.54 262.117 1272.97 260.971C1272.39 259.635 1270.58 258.776 1267.52 258.394L1251.76 256.389V248.369H1330.27V256.389L1314.51 258.394C1311.45 258.776 1309.64 259.635 1309.07 260.971C1308.49 262.117 1308.21 265.936 1308.21 272.428V339.737H1383.56V272.428C1383.56 265.936 1383.27 262.117 1382.7 260.971C1382.13 259.635 1380.31 258.776 1377.25 258.394L1361.5 256.389V248.369H1440V256.389L1424.24 258.394C1421.19 258.776 1419.37 259.635 1418.8 260.971C1418.23 262.117 1417.94 265.936 1417.94 272.428V419.076C1417.94 425.569 1418.23 429.483 1418.8 430.82C1419.37 431.965 1421.19 432.729 1424.24 433.111L1440 435.116Z" fill="#7A9F8F"/>
</g>
</svg>
