<svg width="1392" height="261" viewBox="0 0 1392 261" fill="none" xmlns="http://www.w3.org/2000/svg">
<path d="M0 14.1686V3.72859H112.43C139.821 3.72859 160.241 10.0672 173.687 22.7443C187.383 35.1729 194.231 51.8271 194.231 72.7071V81.2829C194.231 102.163 187.383 118.941 173.687 131.619C160.241 144.296 139.821 150.634 112.43 150.634H73.5837V225.951C73.5837 234.403 73.9572 239.499 74.7043 241.239C75.4513 242.73 77.8169 243.724 81.8011 244.221L109.815 246.831V257.271H0V246.831L20.5437 244.221C24.5279 243.724 26.8935 242.73 27.6406 241.239C28.3876 239.499 28.7611 234.403 28.7611 225.951V35.0486C28.7611 26.5971 28.3876 21.6257 27.6406 20.1343C26.8935 18.3943 24.5279 17.2757 20.5437 16.7786L0 14.1686ZM112.43 16.7786H73.5837V137.584H112.43C123.387 137.584 131.729 133.234 137.456 124.534C143.432 115.834 146.42 103.903 146.42 88.74V65.25C146.42 50.0872 143.432 38.28 137.456 29.8286C131.729 21.1286 123.387 16.7786 112.43 16.7786Z" fill="#7A9F8F"/>
<path d="M468.641 246.831V257.271H366.296V246.831L386.84 244.221C390.824 243.724 393.19 242.73 393.937 241.239C394.684 239.499 395.057 234.403 395.057 225.951V135.72H296.821V225.951C296.821 234.403 297.195 239.499 297.942 241.239C298.689 242.73 301.054 243.724 305.038 244.221L325.582 246.831V257.271H223.237V246.831L243.781 244.221C247.765 243.724 250.131 242.73 250.878 241.239C251.625 239.499 251.998 234.403 251.998 225.951V35.0486C251.998 26.5971 251.625 21.6257 250.878 20.1343C250.131 18.3943 247.765 17.2757 243.781 16.7786L223.237 14.1686V3.72859H325.582V14.1686L305.038 16.7786C301.054 17.2757 298.689 18.3943 297.942 20.1343C297.195 21.6257 296.821 26.5971 296.821 35.0486V122.67H395.057V35.0486C395.057 26.5971 394.684 21.6257 393.937 20.1343C393.19 18.3943 390.824 17.2757 386.84 16.7786L366.296 14.1686V3.72859H468.641V14.1686L448.097 16.7786C444.113 17.2757 441.747 18.3943 441 20.1343C440.253 21.6257 439.88 26.5971 439.88 35.0486V225.951C439.88 234.403 440.253 239.499 441 241.239C441.747 242.73 444.113 243.724 448.097 244.221L468.641 246.831Z" fill="#7A9F8F"/>
<path d="M711.864 118.569V142.059C711.864 180.339 703.273 209.794 686.091 230.426C669.159 250.809 644.008 261 610.64 261C577.272 261 551.997 250.809 534.815 230.426C517.882 209.794 509.416 180.339 509.416 142.059V118.569C509.416 80.2886 517.882 50.9571 534.815 30.5743C551.997 10.1914 577.272 0 610.64 0C644.008 0 669.159 10.1914 686.091 30.5743C703.273 50.9571 711.864 80.2886 711.864 118.569ZM664.054 99.9257C664.054 78.0514 662.186 60.9 658.451 48.4714C654.716 35.7943 648.864 26.7214 640.895 21.2529C633.176 15.7843 623.091 13.05 610.64 13.05C598.439 13.05 588.353 15.7843 580.385 21.2529C572.417 26.7214 566.565 35.7943 562.829 48.4714C559.094 60.9 557.227 78.0514 557.227 99.9257V160.701C557.227 182.327 559.094 199.479 562.829 212.156C566.565 224.833 572.417 234.03 580.385 239.747C588.353 245.216 598.439 247.95 610.64 247.95C623.091 247.95 633.176 245.216 640.895 239.747C648.864 234.03 654.716 224.833 658.451 212.156C662.186 199.479 664.054 182.327 664.054 160.701V99.9257Z" fill="#7A9F8F"/>
<path d="M740.935 3.72859H946.372V67.86H935.913L923.96 26.4729C923.213 23.2414 922.342 21.0043 921.346 19.7614C920.599 18.27 918.98 17.4 916.49 17.1514C914 16.9029 909.767 16.7786 903.79 16.7786H866.065V225.951C866.065 234.403 866.438 239.499 867.185 241.239C867.932 242.73 870.298 243.724 874.282 244.221L894.826 246.831V257.271H792.481V246.831L813.025 244.221C817.009 243.724 819.374 242.73 820.122 241.239C820.869 239.499 821.242 234.403 821.242 225.951V16.7786H783.516C777.789 16.7786 773.556 16.9029 770.817 17.1514C768.326 17.4 766.708 18.27 765.961 19.7614C765.214 21.0043 764.342 23.2414 763.346 26.4729L751.393 67.86H740.935V3.72859Z" fill="#7A9F8F"/>
<path d="M1178.04 118.569V142.059C1178.04 180.339 1169.45 209.794 1152.26 230.426C1135.33 250.809 1110.18 261 1076.81 261C1043.44 261 1018.17 250.809 1000.99 230.426C984.055 209.794 975.588 180.339 975.588 142.059V118.569C975.588 80.2886 984.055 50.9571 1000.99 30.5743C1018.17 10.1914 1043.44 0 1076.81 0C1110.18 0 1135.33 10.1914 1152.26 30.5743C1169.45 50.9571 1178.04 80.2886 1178.04 118.569ZM1130.23 99.9257C1130.23 78.0514 1128.36 60.9 1124.62 48.4714C1120.89 35.7943 1115.04 26.7214 1107.07 21.2529C1099.35 15.7843 1089.26 13.05 1076.81 13.05C1064.61 13.05 1054.53 15.7843 1046.56 21.2529C1038.59 26.7214 1032.74 35.7943 1029 48.4714C1025.27 60.9 1023.4 78.0514 1023.4 99.9257V160.701C1023.4 182.327 1025.27 199.479 1029 212.156C1032.74 224.833 1038.59 234.03 1046.56 239.747C1054.53 245.216 1064.61 247.95 1076.81 247.95C1089.26 247.95 1099.35 245.216 1107.07 239.747C1115.04 234.03 1120.89 224.833 1124.62 212.156C1128.36 199.479 1130.23 182.327 1130.23 160.701V99.9257Z" fill="#7A9F8F"/>
<path d="M1305.34 247.95C1320.28 247.95 1332.61 244.47 1342.32 237.51C1352.28 230.301 1357.26 219.116 1357.26 203.953C1357.26 192.767 1353.9 183.446 1347.18 175.989C1340.7 168.531 1329 162.317 1312.07 157.346L1277.33 146.906C1259.9 141.686 1246.45 132.737 1236.99 120.06C1227.78 107.134 1223.17 91.1014 1223.17 71.9614C1223.17 59.2843 1226.03 47.4771 1231.76 36.54C1237.74 25.6029 1246.7 16.7786 1258.65 10.0671C1270.85 3.35571 1286.17 0 1304.6 0C1324.77 0 1341.08 3.72857 1353.53 11.1857C1365.98 18.3943 1374.69 27.84 1379.67 39.5229C1384.65 51.2057 1385.9 63.7586 1383.41 77.1814L1340.45 85.0114C1344.44 61.8943 1342.7 44.1214 1335.22 31.6929C1328 19.2643 1316.18 13.05 1299.74 13.05C1287.04 13.05 1276.83 16.7786 1269.11 24.2357C1261.64 31.6929 1257.91 42.3814 1257.91 56.3014C1257.91 67.7357 1261.14 77.8029 1267.62 86.5029C1274.34 95.2029 1285.3 101.914 1300.49 106.637L1335.22 117.077C1354.15 122.546 1368.34 130.873 1377.81 142.059C1387.27 152.996 1392 168.283 1392 187.92C1392 201.84 1388.76 214.393 1382.29 225.579C1376.06 236.516 1366.48 245.216 1353.53 251.679C1340.83 257.893 1324.89 261 1305.72 261C1291.77 261 1278.57 259.011 1266.12 255.034C1253.67 250.809 1243.21 243.973 1234.75 234.527C1226.53 225.081 1221.3 212.28 1219.06 196.123L1244.09 187.174C1245.33 203.083 1248.82 215.511 1254.54 224.46C1260.52 233.16 1267.87 239.25 1276.58 242.73C1285.55 246.21 1295.13 247.95 1305.34 247.95Z" fill="#7A9F8F"/>
</svg>
