<svg width="1416" height="288" viewBox="0 0 1416 288" fill="none" xmlns="http://www.w3.org/2000/svg">
<path d="M226.425 38.6743L148.777 283.886H113.445L35.3861 38.6743C33.4688 32.3657 31.9624 27.9772 30.8669 25.5086C29.7713 22.7657 28.5388 20.9829 27.1694 20.16C25.7999 19.3371 23.6088 18.7886 20.596 18.5143L-2 15.6343V4.1143H112.212V15.6343L89.6164 18.5143C85.2342 19.0629 82.9061 20.2972 82.6322 22.2171C82.3583 23.8629 83.5908 29.3486 86.3297 38.6743L148.777 234.926L210.402 38.6743C213.415 29.3486 214.647 23.8629 214.1 22.2171C213.826 20.2972 211.498 19.0629 207.115 18.5143L184.52 15.6343V4.1143H263.4V15.6343L240.804 18.5143C238.065 18.7886 236.011 19.3371 234.641 20.16C233.272 20.9829 232.039 22.7657 230.944 25.5086C229.848 27.9772 228.342 32.3657 226.425 38.6743Z" fill="#7A9F8F"/>
<path d="M278.123 15.6343V4.1143H390.692V15.6343L368.096 18.5143C363.713 19.0629 361.112 20.2972 360.29 22.2171C359.468 23.8629 359.057 29.3486 359.057 38.6743V249.326C359.057 258.651 359.468 264.274 360.29 266.194C361.112 267.84 363.713 268.937 368.096 269.486L390.692 272.366V283.886H278.123V272.366L300.719 269.486C305.101 268.937 307.703 267.84 308.525 266.194C309.346 264.274 309.757 258.651 309.757 249.326V38.6743C309.757 29.3486 309.346 23.8629 308.525 22.2171C307.703 20.2972 305.101 19.0629 300.719 18.5143L278.123 15.6343Z" fill="#7A9F8F"/>
<path d="M426.168 15.6343V4.1143H547.365C582.423 4.1143 609.264 14.4 627.888 34.9714C646.787 55.5429 656.236 87.4971 656.236 130.834V156.754C656.236 200.091 646.787 232.183 627.888 253.029C609.264 273.6 582.423 283.886 547.365 283.886H426.168V272.366L448.764 269.486C453.146 268.937 455.748 267.84 456.57 266.194C457.392 264.274 457.802 258.651 457.802 249.326V38.6743C457.802 29.3486 457.392 23.8629 456.57 22.2171C455.748 20.2972 453.146 19.0629 448.764 18.5143L426.168 15.6343ZM545.31 18.5143H507.103V269.486H545.31C559.279 269.486 570.508 267.154 578.999 262.491C587.49 257.554 593.652 248.503 597.487 235.337C601.595 221.897 603.649 202.56 603.649 177.326V110.263C603.649 85.0286 601.595 65.8286 597.487 52.6629C593.652 39.4972 587.49 30.5829 578.999 25.92C570.508 20.9829 559.279 18.5143 545.31 18.5143Z" fill="#7A9F8F"/>
<path d="M892.855 213.12H904.359V283.886H700.995V272.366L723.591 269.486C727.973 268.937 730.575 267.84 731.397 266.194C732.218 264.274 732.629 258.651 732.629 249.326V38.6743C732.629 29.3486 732.218 23.8629 731.397 22.2171C730.575 20.2972 727.973 19.0629 723.591 18.5143L700.995 15.6343V4.1143H900.25V74.88H888.747L875.6 29.2114C874.778 25.92 873.82 23.5886 872.724 22.2171C871.902 20.5714 870.122 19.6114 867.383 19.3372C864.644 18.7886 859.988 18.5143 853.415 18.5143H781.929V135.36H828.765C835.338 135.36 839.994 135.223 842.733 134.949C845.472 134.4 847.252 133.44 848.074 132.069C849.17 130.423 850.128 127.954 850.95 124.663L859.988 91.3371H871.492V193.783H859.988L850.95 160.457C850.128 157.166 849.17 154.834 848.074 153.463C847.252 151.817 845.472 150.857 842.733 150.583C839.994 150.034 835.338 149.76 828.765 149.76H781.929V269.486H857.523C864.097 269.486 868.753 269.349 871.492 269.074C874.231 268.526 876.011 267.566 876.833 266.194C877.928 264.549 878.887 262.08 879.708 258.789L892.855 213.12Z" fill="#7A9F8F"/>
<path d="M1180.66 130.834V156.754C1180.66 198.994 1171.21 231.497 1152.31 254.263C1133.69 276.754 1106.03 288 1069.33 288C1032.62 288 1004.82 276.754 985.925 254.263C967.301 231.497 957.989 198.994 957.989 156.754V130.834C957.989 88.5943 967.301 56.2286 985.925 33.7371C1004.82 11.2457 1032.62 0 1069.33 0C1106.03 0 1133.69 11.2457 1152.31 33.7371C1171.21 56.2286 1180.66 88.5943 1180.66 130.834ZM1128.07 110.263C1128.07 86.1257 1126.02 67.2 1121.91 53.4857C1117.8 39.4972 1111.37 29.4857 1102.6 23.4514C1094.11 17.4172 1083.02 14.4 1069.33 14.4C1055.9 14.4 1044.81 17.4172 1036.05 23.4514C1027.28 29.4857 1020.85 39.4972 1016.74 53.4857C1012.63 67.2 1010.58 86.1257 1010.58 110.263V177.326C1010.58 201.189 1012.63 220.114 1016.74 234.103C1020.85 248.091 1027.28 258.24 1036.05 264.549C1044.81 270.583 1055.9 273.6 1069.33 273.6C1083.02 273.6 1094.11 270.583 1102.6 264.549C1111.37 258.24 1117.8 248.091 1121.91 234.103C1126.02 220.114 1128.07 201.189 1128.07 177.326V110.263Z" fill="#7A9F8F"/>
<path d="M1320.69 273.6C1337.12 273.6 1350.68 269.76 1361.36 262.08C1372.31 254.126 1377.79 241.783 1377.79 225.051C1377.79 212.709 1374.09 202.423 1366.7 194.194C1359.58 185.966 1346.71 179.109 1328.08 173.623L1289.87 162.103C1270.7 156.343 1255.91 146.469 1245.5 132.48C1235.37 118.217 1230.3 100.526 1230.3 79.4057C1230.3 65.4171 1233.45 52.3886 1239.75 40.32C1246.32 28.2514 1256.18 18.5143 1269.33 11.1086C1282.75 3.70286 1299.6 0 1319.86 0C1342.05 0 1359.99 4.11429 1373.68 12.3429C1387.38 20.2971 1396.96 30.72 1402.44 43.6114C1407.92 56.5029 1409.29 70.3543 1406.55 85.1657L1359.3 93.8057C1363.69 68.2972 1361.77 48.6857 1353.55 34.9714C1345.61 21.2572 1332.6 14.4 1314.52 14.4C1300.56 14.4 1289.33 18.5143 1280.83 26.7429C1272.62 34.9714 1268.51 46.7657 1268.51 62.1257C1268.51 74.7429 1272.07 85.8514 1279.19 95.4514C1286.59 105.051 1298.64 112.457 1315.35 117.669L1353.55 129.189C1374.37 135.223 1389.98 144.411 1400.39 156.754C1410.8 168.823 1416 185.691 1416 207.36C1416 222.72 1412.44 236.571 1405.32 248.914C1398.47 260.983 1387.93 270.583 1373.68 277.714C1359.72 284.571 1342.19 288 1321.1 288C1305.76 288 1291.24 285.806 1277.55 281.417C1263.85 276.754 1252.35 269.211 1243.04 258.789C1234 248.366 1228.25 234.24 1225.78 216.411L1253.31 206.537C1254.68 224.091 1258.51 237.806 1264.81 247.68C1271.39 257.28 1279.47 264 1289.05 267.84C1298.91 271.68 1309.46 273.6 1320.69 273.6Z" fill="#7A9F8F"/>
</svg>
